<?xml version="1.0" encoding="UTF-8"?>
<svg width="19px" height="19px" viewBox="0 0 19 19" version="1.1" xmlns="http://www.w3.org/2000/svg" xmlns:xlink="http://www.w3.org/1999/xlink">
    <title>Group</title>
    <g id="Page-1" stroke="none" stroke-width="1" fill="none" fill-rule="evenodd">
        <g id="Group" fill="#3E2022" fill-rule="nonzero">
            <g id="arrow-select">
                <path d="M18.95,0.45 C18.9649638,0.590959824 18.9295374,0.732665485 18.85,0.85 L9.85,9.85 C9.75882286,9.94587507 9.63230759,10.0001502 9.5,10.0001502 C9.36769241,10.0001502 9.24117714,9.94587507 9.15,9.85 L0.15,0.85 C0.0541249328,0.758822861 -0.000150184017,0.632307593 -0.000150184017,0.5 C-0.000150184017,0.367692407 0.0541249328,0.241177139 0.15,0.15 C0.241177139,0.0541249328 0.367692407,-0.000150184017 0.5,-0.000150184017 C0.632307593,-0.000150184017 0.758822861,0.0541249328 0.85,0.15 L9.45,8.75 L18.05,0.15 C18.1411771,0.0541249328 18.2676924,-0.000150184017 18.4,-0.000150184017 C18.5323076,-0.000150184017 18.6588229,0.0541249328 18.75,0.15 C18.85,0.15 18.95,0.35 18.95,0.45 Z" id="Shape"></path>
            </g>
            <g id="arrow-select" transform="translate(9.500000, 14.000000) scale(1, -1) translate(-9.500000, -14.000000) translate(0.000000, 9.000000)">
                <path d="M18.95,0.45 C18.9649638,0.590959824 18.9295374,0.732665485 18.85,0.85 L9.85,9.85 C9.75882286,9.94587507 9.63230759,10.0001502 9.5,10.0001502 C9.36769241,10.0001502 9.24117714,9.94587507 9.15,9.85 L0.15,0.85 C0.0541249328,0.758822861 -0.000150184017,0.632307593 -0.000150184017,0.5 C-0.000150184017,0.367692407 0.0541249328,0.241177139 0.15,0.15 C0.241177139,0.0541249328 0.367692407,-0.000150184017 0.5,-0.000150184017 C0.632307593,-0.000150184017 0.758822861,0.0541249328 0.85,0.15 L9.45,8.75 L18.05,0.15 C18.1411771,0.0541249328 18.2676924,-0.000150184017 18.4,-0.000150184017 C18.5323076,-0.000150184017 18.6588229,0.0541249328 18.75,0.15 C18.85,0.15 18.95,0.35 18.95,0.45 Z" id="Shape"></path>
            </g>
        </g>
    </g>
</svg>